# xmcd CD database file
#
# Track frame offsets:
#	150
#	11483
#	23522
#	35760
#	47551
#	59528
#	71930
#	82410
#	93478
#	103239
#	117668
#	130729
#	142592
#	154762
#	166262
#	176559
#	188025
#	200045
#	211987
#	224293
#
# Disc length: 3164 seconds
#
# Revision: 1
# Processed by: cddbd v1.5.2PL0 Copyright (c) Steve Scherf et al.
# Submitted via: CDex 1.70beta2
#
DISCID=260c5a14
DTITLE=Bob Wills and His Texas Playboys - The King of Western Swing - CD 2
DYEAR=2006
DGENRE=Country
TTITLE0=Home in San Antone
TTITLE1=Liberty
TTITLE2=Goodbye Liza Jane
TTITLE3=Texas Playboy Rag
TTITLE4=Roly Poly
TTITLE5=Stay a Little Longer
TTITLE6=Baby, Won't You Please Come Home?
TTITLE7=Dinah
TTITLE8=A Good Man Is Hard to Find
TTITLE9=I'm a Ding Dong Daddy
TTITLE10=Milk Cow Blues
TTITLE11=Cotton Eyed Joe
TTITLE12=Can't Get Enough of Texas
TTITLE13=Bubbles in My Beer
TTITLE14=Little Cowboy Lament
TTITLE15=Keeper of My Heart
TTITLE16=Ida Red Likes to Boogie
TTITLE17=Boot Heal Rag
TTITLE18=Faded Love
TTITLE19=Bob Wills Boogie
EXTD=YEAR: 2006
EXTT0=
EXTT1=
EXTT2=
EXTT3=
EXTT4=
EXTT5=
EXTT6=
EXTT7=
EXTT8=
EXTT9=
EXTT10=
EXTT11=
EXTT12=
EXTT13=
EXTT14=
EXTT15=
EXTT16=
EXTT17=
EXTT18=
EXTT19=
PLAYORDER=
